<svg height="496pt" viewBox="-80 0 496 496" width="496pt" xmlns="http://www.w3.org/2000/svg"><path d="m216 416h-144v40c0 17.679688 14.320312 32 32 32h160c17.679688 0 32-14.320312 32-32v-40zm0 0" fill="#cf9e76"/><path d="m184 160h-16c-35.359375 0-64-28.640625-64-64h16c35.359375 0 64 28.640625 64 64zm0 0" fill="#b4dd7f"/><path d="m248 8h16c0 35.359375-28.640625 64-64 64h-16c0-35.359375 28.640625-64 64-64zm0 0" fill="#b4dd7f"/><path d="m232 136h16c0 26.480469-21.519531 48-48 48h-16c0-26.480469 21.519531-48 48-48zm0 0" fill="#a0d468"/><path d="m296 296v120h-58.398438c11.4375-12.71875 18.398438-29.601562 18.398438-48 0-39.761719-32.238281-72-72-72v-40c0-4.398438-3.601562-8-8-8h84.640625c2.078125 1.679688 3.359375 2.71875 3.359375 2.71875l22.640625 22.640625c6 6 9.359375 14.160156 9.359375 22.640625zm0 0" fill="#e6e9ed"/><path d="m288 224v16c0 4.398438-3.601562 8-8 8h-192c-4.398438 0-8-3.601562-8-8v-16c0-4.398438 3.601562-8 8-8h192c4.398438 0 8 3.601562 8 8zm0 0" fill="#969faa"/><path d="m256 368c0 18.398438-6.960938 35.28125-18.398438 48h-21.601562v16.480469c-9.601562 4.800781-20.558594 7.519531-32 7.519531s-22.398438-2.71875-32-7.519531v-16.480469h-21.601562c-11.4375-12.71875-18.398438-29.601562-18.398438-48 0-39.761719 32.238281-72 72-72s72 32.238281 72 72zm0 0" fill="#fcd770"/><path d="m184 256v40c-39.761719 0-72 32.238281-72 72 0 18.398438 6.960938 35.28125 18.398438 48h-58.398438v-120c0-8.480469 3.359375-16.640625 9.359375-22.640625l22.640625-22.640625s1.28125-1.039062 3.359375-2.71875h68.640625c4.398438 0 8 3.601562 8 8zm0 0" fill="#e6e9ed"/><path d="m184 72h-16c-26.480469 0-48-21.519531-48-48h16c26.480469 0 48 21.519531 48 48zm0 0" fill="#a0d468"/><path d="m216 384c0-13.230469-10.769531-24-24-24h-16c-4.414062 0-8-3.59375-8-8s3.585938-8 8-8h16c4.414062 0 8 3.59375 8 8v8h16v-8c0-13.230469-10.769531-24-24-24v-8h-16v8c-13.230469 0-24 10.769531-24 24s10.769531 24 24 24h16c4.414062 0 8 3.59375 8 8s-3.585938 8-8 8h-16c-4.414062 0-8-3.59375-8-8v-8h-16v8c0 13.230469 10.769531 24 24 24v24h16v-24c13.230469 0 24-10.769531 24-24zm0 0"/><path d="m176 448h16v16h-16zm0 0"/><path d="m16 104h16v16h-16zm0 0"/><path d="m0 120h16v16h-16zm0 0"/><path d="m16 136h16v16h-16zm0 0"/><path d="m32 120h16v16h-16zm0 0"/><path d="m304 24h16v16h-16zm0 0"/><path d="m288 40h16v16h-16zm0 0"/><path d="m304 56h16v16h-16zm0 0"/><path d="m320 40h16v16h-16zm0 0"/><path d="m16 168h16v16h-16zm0 0"/><path d="m16 200h16v16h-16zm0 0"/><path d="m304 88h16v16h-16zm0 0"/><path d="m304 120h16v16h-16zm0 0"/><path d="m280.496094 255.953125c8.59375-.273437 15.503906-7.296875 15.503906-15.953125v-16c0-8.824219-7.175781-16-16-16h-88v-16h8c30.871094 0 56-25.121094 56-56v-8h-24c-15.664062 0-29.824219 6.480469-40 16.886719v-64.886719h8c39.703125 0 72-32.304688 72-72v-8h-24c-28.785156 0-53.601562 17.015625-65.113281 41.472656-10.007813-15.3125-27.269531-25.472656-46.886719-25.472656h-24v8c0 30.878906 25.128906 56 56 56h8v34.847656c-13.207031-16.351562-33.390625-26.847656-56-26.847656h-24v8c0 39.695312 32.296875 72 72 72h8v40h-88c-8.824219 0-16 7.175781-16 16v16c0 8.648438 6.902344 15.671875 15.488281 15.945312l-11.769531 11.765626c-7.550781 7.570312-11.71875 17.609374-11.71875 28.289062v160c0 22.054688 17.945312 40 40 40h160c22.054688 0 40-17.945312 40-40v-160c0-10.679688-4.167969-20.71875-11.71875-28.289062zm-48.496094-111.953125h7.191406c-3.71875 18.230469-19.871094 32-39.191406 32h-7.191406c3.710937-18.230469 19.871094-32 39.191406-32zm-64-80c-19.320312 0-35.480469-13.769531-39.191406-32h7.191406c19.320312 0 35.480469 13.769531 39.191406 32zm80-48h7.433594c-3.898438 27.105469-27.265625 48-55.433594 48h-7.433594c3.898438-27.105469 27.265625-48 55.433594-48zm-80 136c-28.167969 0-51.535156-20.894531-55.433594-48h7.433594c28.167969 0 51.535156 20.894531 55.433594 48zm-80 72h192v16h-72v16h49.816406c.296875.238281.582032.480469.589844.480469l22.554688 22.550781c4.542968 4.535156 7.039062 10.5625 7.039062 16.96875v112h-34.855469c7.03125-12.105469 10.855469-25.847656 10.855469-40 0-41.414062-31.632812-75.566406-72-79.59375v-32.40625c0-8.824219-7.175781-16-16-16h-88zm-.96875 55.023438 22.175781-22.207032c.03125-.03125.402344-.335937.984375-.824218h65.808594v32.40625c-40.367188 4.027343-72 38.1875-72 79.59375 0 14.152343 3.824219 27.894531 10.855469 40h-34.855469v-111.992188c0-6.40625 2.496094-12.433594 7.03125-16.976562zm176.96875 200.976562h-160c-13.230469 0-24-10.769531-24-24v-32h64v19.71875l-20.441406 13.625 8.875 13.3125 27.566406-18.375v-44.28125h-25.777344c-9.160156-11.375-14.222656-25.425781-14.222656-40 0-35.289062 28.710938-64 64-64s64 28.710938 64 64c0 14.574219-5.0625 28.625-14.222656 40h-25.777344v44.28125l27.558594 18.375 8.875-13.3125-20.433594-13.625v-19.71875h64v32c0 13.230469-10.769531 24-24 24zm0 0"/></svg>